# xmcd CD Database Entry
#
# Track frame offsets:
# 150
# 17615
# 32628
# 42955
# 59515
# 74782
# 91702
# 102013
# 115331
# 132635
# 145196
# 161778
#
# Disc length: 2369 seconds
#
# Revision: 1
# Processed by: cddbd v1.4PL0 Copyright (c) Steve Scherf et al.
# Submitted via: tcd 2.0b
#
DISCID=a9093f0c
DTITLE=Deviot - Sickhead
DYEAR=1900
DGENRE=
TTITLE0=All trash
TTITLE1=Syrocase
TTITLE2=Feed the dog
TTITLE3=Hole in paradise
TTITLE4=Deviot
TTITLE5=Flöyd
TTITLE6=Big inside
TTITLE7=Wait here
TTITLE8=Road to no where
TTITLE9=P.A.T.
TTITLE10=The circle
TTITLE11=My version
EXTD=
EXTT0=
EXTT1=
EXTT2=
EXTT3=
EXTT4=
EXTT5=
EXTT6=
EXTT7=
EXTT8=
EXTT9=
EXTT10=
EXTT11=
PLAYORDER=
